<svg width="313" height="214" viewBox="0 0 313 214" fill="none" xmlns="http://www.w3.org/2000/svg">
<path d="M22.6805 71.1531H45.7677V99.2175H51.7098V83.3277H81.0729V108.485H84.9586V49.4432H110.476V65.6538H123.555V85.8134H127.514V73.1309H150.715V110.978H157.498V80.2072H178.716V56.8469H193.144V43.543H209.829V102.559H215.437V77.9286H242.931V113.183H246.73V84.4102H274.61V58.484H290.233V179.228H22.6805V71.1531Z" fill="#CFD4DD"/>
<path d="M29.4149 80.0449H25.5092V74.6793H29.4149V80.0449Z" fill="white"/>
<path d="M36.1887 80.0449H32.283V74.6793H36.1887V80.0449Z" fill="white"/>
<path d="M42.9635 80.0449H39.0577V74.6793H42.9635V80.0449Z" fill="white"/>
<path d="M29.4149 88.1191H25.5092V82.7535H29.4149V88.1191Z" fill="white"/>
<path d="M36.1887 88.1191H32.283V82.7535H36.1887V88.1191Z" fill="white"/>
<path d="M42.9635 88.1191H39.0577V82.7535H42.9635V88.1191Z" fill="white"/>
<path d="M29.4149 96.1914H25.5092V90.8257H29.4149V96.1914Z" fill="white"/>
<path d="M36.1887 96.1914H32.283V90.8257H36.1887V96.1914Z" fill="white"/>
<path d="M42.9635 96.1914H39.0577V90.8257H42.9635V96.1914Z" fill="white"/>
<path d="M29.4149 104.268H25.5092V98.9019H29.4149V104.268Z" fill="white"/>
<path d="M36.1887 104.268H32.283V98.9019H36.1887V104.268Z" fill="white"/>
<path d="M42.9635 104.268H39.0577V98.9019H42.9635V104.268Z" fill="white"/>
<path d="M164.664 88.5254H160.758V84.0484H164.664V88.5254Z" fill="white"/>
<path d="M171.432 88.5254H167.526V84.0484H171.432V88.5254Z" fill="white"/>
<path d="M178.208 88.5254H174.302V84.0484H178.208V88.5254Z" fill="white"/>
<path d="M164.664 95.252H160.758V90.775H164.664V95.252Z" fill="white"/>
<path d="M171.432 95.252H167.526V90.775H171.432V95.252Z" fill="white"/>
<path d="M178.208 95.252H174.302V90.775H178.208V95.252Z" fill="white"/>
<path d="M164.664 101.99H160.758V97.5133H164.664V101.99Z" fill="white"/>
<path d="M171.432 101.99H167.526V97.5133H171.432V101.99Z" fill="white"/>
<path d="M178.208 101.99H174.302V97.5133H178.208V101.99Z" fill="white"/>
<path d="M164.664 108.727H160.758V104.25H164.664V108.727Z" fill="white"/>
<path d="M171.432 108.727H167.526V104.25H171.432V108.727Z" fill="white"/>
<path d="M178.208 108.727H174.302V104.25H178.208V108.727Z" fill="white"/>
<path d="M164.664 115.629H160.758V111.152H164.664V115.629Z" fill="white"/>
<path d="M171.432 115.629H167.526V111.152H171.432V115.629Z" fill="white"/>
<path d="M178.208 115.629H174.302V111.152H178.208V115.629Z" fill="white"/>
<path d="M164.664 122.533H160.758V118.056H164.664V122.533Z" fill="white"/>
<path d="M171.432 122.533H167.526V118.056H171.432V122.533Z" fill="white"/>
<path d="M178.208 122.533H174.302V118.056H178.208V122.533Z" fill="white"/>
<path d="M164.664 129.426H160.758V124.949H164.664V129.426Z" fill="white"/>
<path d="M171.432 129.426H167.526V124.949H171.432V129.426Z" fill="white"/>
<path d="M178.208 129.426H174.302V124.949H178.208V129.426Z" fill="white"/>
<path d="M164.664 136.33H160.758V131.853H164.664V136.33Z" fill="white"/>
<path d="M171.432 136.33H167.526V131.853H171.432V136.33Z" fill="white"/>
<path d="M178.208 136.33H174.302V131.853H178.208V136.33Z" fill="white"/>
<path d="M77.5336 90.125H55.0472V86.7706H77.5336V90.125Z" fill="white"/>
<path d="M77.5336 96.6387H55.0472V93.2843H77.5336V96.6387Z" fill="white"/>
<path d="M77.5336 103.146H55.0472V99.7921H77.5336V103.146Z" fill="white"/>
<path d="M77.5336 109.652H55.0472V106.298H77.5336V109.652Z" fill="white"/>
<path d="M77.5336 116.17H55.0472V112.816H77.5336V116.17Z" fill="white"/>
<path d="M77.5336 122.676H55.0472V119.321H77.5336V122.676Z" fill="white"/>
<path d="M77.5336 129.193H55.0472V125.839H77.5336V129.193Z" fill="white"/>
<path d="M77.5336 135.693H55.0472V132.339H77.5336V135.693Z" fill="white"/>
<path d="M239.447 84.4102H218.77V81.0558H239.447V84.4102Z" fill="white"/>
<path d="M239.447 90.9277H218.77V87.5734H239.447V90.9277Z" fill="white"/>
<path d="M239.447 97.4375H218.77V94.0831H239.447V97.4375Z" fill="white"/>
<path d="M239.447 103.947H218.77V100.593H239.447V103.947Z" fill="white"/>
<path d="M239.447 110.459H218.77V107.105H239.447V110.459Z" fill="white"/>
<path d="M239.447 116.971H218.77V113.616H239.447V116.971Z" fill="white"/>
<path d="M239.447 123.484H218.77V120.13H239.447V123.484Z" fill="white"/>
<path d="M239.447 129.99H218.77V126.636H239.447V129.99Z" fill="white"/>
<path d="M239.447 136.176H218.77V132.821H239.447V136.176Z" fill="white"/>
<path d="M239.447 142.361H218.77V139.007H239.447V142.361Z" fill="white"/>
<path d="M239.447 148.553H218.77V145.198H239.447V148.553Z" fill="white"/>
<path d="M239.447 154.729H218.77V151.374H239.447V154.729Z" fill="white"/>
<path d="M239.447 160.92H218.77V157.566H239.447V160.92Z" fill="white"/>
<path d="M272.871 92.2715H251.032V88.9171H272.871V92.2715Z" fill="white"/>
<path d="M272.871 98.7949H251.032V95.4406H272.871V98.7949Z" fill="white"/>
<path d="M272.871 105.305H251.032V101.95H272.871V105.305Z" fill="white"/>
<path d="M272.871 111.811H251.032V108.456H272.871V111.811Z" fill="white"/>
<path d="M272.871 118.318H251.032V114.964H272.871V118.318Z" fill="white"/>
<path d="M272.871 124.834H251.032V121.48H272.871V124.834Z" fill="white"/>
<path d="M272.871 131.344H251.032V127.989H272.871V131.344Z" fill="white"/>
<path d="M272.871 137.857H251.032V134.503H272.871V137.857Z" fill="white"/>
<path d="M272.871 143.684H251.032V140.329H272.871V143.684Z" fill="white"/>
<path d="M272.871 149.512H251.032V146.157H272.871V149.512Z" fill="white"/>
<path d="M272.871 155.34H251.032V151.985H272.871V155.34Z" fill="white"/>
<path d="M141.248 79.4121H134.305V76.1713H141.248V79.4121Z" fill="white"/>
<path d="M141.248 85.6992H134.305V82.4584H141.248V85.6992Z" fill="white"/>
<path d="M141.248 91.9863H134.305V88.7455H141.248V91.9863Z" fill="white"/>
<path d="M141.248 98.2754H134.305V95.0346H141.248V98.2754Z" fill="white"/>
<path d="M141.248 104.562H134.305V101.322H141.248V104.562Z" fill="white"/>
<path d="M141.248 110.85H134.305V107.609H141.248V110.85Z" fill="white"/>
<path d="M141.248 117.141H134.305V113.9H141.248V117.141Z" fill="white"/>
<path d="M141.248 123.422H134.305V120.181H141.248V123.422Z" fill="white"/>
<path d="M150.698 79.4121H143.754V76.1713H150.698V79.4121Z" fill="white"/>
<path d="M150.698 85.6992H143.754V82.4584H150.698V85.6992Z" fill="white"/>
<path d="M150.698 91.9863H143.754V88.7455H150.698V91.9863Z" fill="white"/>
<path d="M150.698 98.2754H143.754V95.0346H150.698V98.2754Z" fill="white"/>
<path d="M150.698 104.562H143.754V101.322H150.698V104.562Z" fill="white"/>
<path d="M150.698 110.85H143.754V107.609H150.698V110.85Z" fill="white"/>
<path d="M150.698 117.141H143.754V113.9H150.698V117.141Z" fill="white"/>
<path d="M150.698 123.422H143.754V120.181H150.698V123.422Z" fill="white"/>
<path d="M96.0691 57.957H88.8318V52.8453H96.0691V57.957Z" fill="white"/>
<path d="M106.853 57.957H99.6154V52.8453H106.853V57.957Z" fill="white"/>
<path d="M96.0691 65.4551H88.8318V60.3433H96.0691V65.4551Z" fill="white"/>
<path d="M106.853 65.4551H99.6154V60.3433H106.853V65.4551Z" fill="white"/>
<path d="M96.0691 72.9707H88.8318V67.859H96.0691V72.9707Z" fill="white"/>
<path d="M106.853 72.9707H99.6154V67.859H106.853V72.9707Z" fill="white"/>
<path d="M96.0691 80.4727H88.8318V75.3609H96.0691V80.4727Z" fill="white"/>
<path d="M106.853 80.4727H99.6154V75.3609H106.853V80.4727Z" fill="white"/>
<path d="M96.0691 87.9863H88.8318V82.8746H96.0691V87.9863Z" fill="white"/>
<path d="M106.853 87.9863H99.6154V82.8746H106.853V87.9863Z" fill="white"/>
<path d="M96.0691 95.4941H88.8318V90.3824H96.0691V95.4941Z" fill="white"/>
<path d="M106.853 95.4941H99.6154V90.3824H106.853V95.4941Z" fill="white"/>
<path d="M96.0691 103H88.8318V97.8882H96.0691V103Z" fill="white"/>
<path d="M106.853 103H99.6154V97.8882H106.853V103Z" fill="white"/>
<path d="M96.0691 110.51H88.8318V105.398H96.0691V110.51Z" fill="white"/>
<path d="M106.853 110.51H99.6154V105.398H106.853V110.51Z" fill="white"/>
<path d="M120.223 72.9707H112.986V67.859H120.223V72.9707Z" fill="white"/>
<path d="M120.223 80.4727H112.986V75.3609H120.223V80.4727Z" fill="white"/>
<path d="M120.223 87.9863H112.986V82.8746H120.223V87.9863Z" fill="white"/>
<path d="M120.223 95.4941H112.986V90.3824H120.223V95.4941Z" fill="white"/>
<path d="M120.223 103H112.986V97.8882H120.223V103Z" fill="white"/>
<path d="M120.223 110.51H112.986V105.398H120.223V110.51Z" fill="white"/>
<path d="M96.0691 117.93H88.8318V112.818H96.0691V117.93Z" fill="white"/>
<path d="M106.853 117.93H99.6154V112.818H106.853V117.93Z" fill="white"/>
<path d="M120.223 117.93H112.986V112.818H120.223V117.93Z" fill="white"/>
<path d="M96.0691 125.338H88.8318V120.226H96.0691V125.338Z" fill="white"/>
<path d="M106.853 125.338H99.6154V120.226H106.853V125.338Z" fill="white"/>
<path d="M120.223 125.338H112.986V120.226H120.223V125.338Z" fill="white"/>
<path d="M96.0691 132.756H88.8318V127.644H96.0691V132.756Z" fill="white"/>
<path d="M106.853 132.756H99.6154V127.644H106.853V132.756Z" fill="white"/>
<path d="M120.223 132.756H112.986V127.644H120.223V132.756Z" fill="white"/>
<path d="M96.0691 140.172H88.8318V135.06H96.0691V140.172Z" fill="white"/>
<path d="M106.853 140.172H99.6154V135.06H106.853V140.172Z" fill="white"/>
<path d="M120.223 140.172H112.986V135.06H120.223V140.172Z" fill="white"/>
<path d="M96.0691 147.59H88.8318V142.478H96.0691V147.59Z" fill="white"/>
<path d="M106.853 147.59H99.6154V142.478H106.853V147.59Z" fill="white"/>
<path d="M120.223 147.59H112.986V142.478H120.223V147.59Z" fill="white"/>
<path d="M185.568 64.6113H181.662V60.1344H185.568V64.6113Z" fill="white"/>
<path d="M192.337 64.6113H188.431V60.1344H192.337V64.6113Z" fill="white"/>
<path d="M185.568 71.3477H181.662V66.8707H185.568V71.3477Z" fill="white"/>
<path d="M192.337 71.3477H188.431V66.8707H192.337V71.3477Z" fill="white"/>
<path d="M185.568 78.0859H181.662V73.609H185.568V78.0859Z" fill="white"/>
<path d="M192.337 78.0859H188.431V73.609H192.337V78.0859Z" fill="white"/>
<path d="M185.568 84.8242H181.662V80.3473H185.568V84.8242Z" fill="white"/>
<path d="M192.337 84.8242H188.431V80.3473H192.337V84.8242Z" fill="white"/>
<path d="M185.568 91.7285H181.662V87.2516H185.568V91.7285Z" fill="white"/>
<path d="M192.337 91.7285H188.431V87.2516H192.337V91.7285Z" fill="white"/>
<path d="M185.568 98.6211H181.662V94.1442H185.568V98.6211Z" fill="white"/>
<path d="M192.337 98.6211H188.431V94.1442H192.337V98.6211Z" fill="white"/>
<path d="M185.568 105.523H181.662V101.046H185.568V105.523Z" fill="white"/>
<path d="M192.337 105.523H188.431V101.046H192.337V105.523Z" fill="white"/>
<path d="M185.568 112.43H181.662V107.953H185.568V112.43Z" fill="white"/>
<path d="M192.337 112.43H188.431V107.953H192.337V112.43Z" fill="white"/>
<path d="M185.568 119.406H181.662V114.929H185.568V119.406Z" fill="white"/>
<path d="M192.337 119.406H188.431V114.929H192.337V119.406Z" fill="white"/>
<path d="M185.568 126.371H181.662V121.894H185.568V126.371Z" fill="white"/>
<path d="M192.337 126.371H188.431V121.894H192.337V126.371Z" fill="white"/>
<path d="M185.568 133.348H181.662V128.871H185.568V133.348Z" fill="white"/>
<path d="M192.337 133.348H188.431V128.871H192.337V133.348Z" fill="white"/>
<path d="M185.568 140.33H181.662V135.853H185.568V140.33Z" fill="white"/>
<path d="M192.337 140.33H188.431V135.853H192.337V140.33Z" fill="white"/>
<path d="M280.966 66.1348H277.06V60.8626H280.966V66.1348Z" fill="white"/>
<path d="M287.73 66.1348H283.825V60.8626H287.73V66.1348Z" fill="white"/>
<path d="M280.966 74.0684H277.06V68.7962H280.966V74.0684Z" fill="white"/>
<path d="M287.73 74.0684H283.825V68.7962H287.73V74.0684Z" fill="white"/>
<path d="M280.966 82.002H277.06V76.7298H280.966V82.002Z" fill="white"/>
<path d="M287.73 82.002H283.825V76.7298H287.73V82.002Z" fill="white"/>
<path d="M280.966 89.9414H277.06V84.6693H280.966V89.9414Z" fill="white"/>
<path d="M287.73 89.9414H283.825V84.6693H287.73V89.9414Z" fill="white"/>
<path d="M280.966 98.0781H277.06V92.806H280.966V98.0781Z" fill="white"/>
<path d="M287.73 98.0781H283.825V92.806H287.73V98.0781Z" fill="white"/>
<path d="M280.966 106.207H277.06V100.935H280.966V106.207Z" fill="white"/>
<path d="M287.73 106.207H283.825V100.935H287.73V106.207Z" fill="white"/>
<path d="M280.966 114.332H277.06V109.06H280.966V114.332Z" fill="white"/>
<path d="M287.73 114.332H283.825V109.06H287.73V114.332Z" fill="white"/>
<path d="M280.966 122.471H277.06V117.199H280.966V122.471Z" fill="white"/>
<path d="M287.73 122.471H283.825V117.199H287.73V122.471Z" fill="white"/>
<path d="M280.966 130.688H277.06V125.415H280.966V130.688Z" fill="white"/>
<path d="M287.73 130.688H283.825V125.415H287.73V130.688Z" fill="white"/>
<path d="M280.966 138.9H277.06V133.628H280.966V138.9Z" fill="white"/>
<path d="M287.73 138.9H283.825V133.628H287.73V138.9Z" fill="white"/>
<path d="M280.966 147.123H277.06V141.851H280.966V147.123Z" fill="white"/>
<path d="M287.73 147.123H283.825V141.851H287.73V147.123Z" fill="white"/>
<path d="M280.966 155.34H277.06V150.068H280.966V155.34Z" fill="white"/>
<path d="M287.73 155.34H283.825V150.068H287.73V155.34Z" fill="white"/>
<path d="M200.056 64.6113H196.15V60.1344H200.056V64.6113Z" fill="white"/>
<path d="M206.824 64.6113H202.919V60.1344H206.824V64.6113Z" fill="white"/>
<path d="M200.056 57.709H196.15V53.232H200.056V57.709Z" fill="white"/>
<path d="M206.824 57.709H202.919V53.232H206.824V57.709Z" fill="white"/>
<path d="M200.056 50.8066H196.15V46.3297H200.056V50.8066Z" fill="white"/>
<path d="M206.824 50.8066H202.919V46.3297H206.824V50.8066Z" fill="white"/>
<path d="M200.056 71.3477H196.15V66.8707H200.056V71.3477Z" fill="white"/>
<path d="M206.824 71.3477H202.919V66.8707H206.824V71.3477Z" fill="white"/>
<path d="M200.056 78.0859H196.15V73.609H200.056V78.0859Z" fill="white"/>
<path d="M206.824 78.0859H202.919V73.609H206.824V78.0859Z" fill="white"/>
<path d="M200.056 84.8242H196.15V80.3473H200.056V84.8242Z" fill="white"/>
<path d="M206.824 84.8242H202.919V80.3473H206.824V84.8242Z" fill="white"/>
<path d="M200.056 91.7285H196.15V87.2516H200.056V91.7285Z" fill="white"/>
<path d="M206.824 91.7285H202.919V87.2516H206.824V91.7285Z" fill="white"/>
<path d="M200.056 98.6211H196.15V94.1442H200.056V98.6211Z" fill="white"/>
<path d="M206.824 98.6211H202.919V94.1442H206.824V98.6211Z" fill="white"/>
<path d="M200.056 105.523H196.15V101.046H200.056V105.523Z" fill="white"/>
<path d="M206.824 105.523H202.919V101.046H206.824V105.523Z" fill="white"/>
<path d="M200.056 112.43H196.15V107.953H200.056V112.43Z" fill="white"/>
<path d="M206.824 112.43H202.919V107.953H206.824V112.43Z" fill="white"/>
<path d="M200.056 119.406H196.15V114.929H200.056V119.406Z" fill="white"/>
<path d="M206.824 119.406H202.919V114.929H206.824V119.406Z" fill="white"/>
<path d="M200.056 126.371H196.15V121.894H200.056V126.371Z" fill="white"/>
<path d="M206.824 126.371H202.919V121.894H206.824V126.371Z" fill="white"/>
<path d="M200.056 133.348H196.15V128.871H200.056V133.348Z" fill="white"/>
<path d="M206.824 133.348H202.919V128.871H206.824V133.348Z" fill="white"/>
<path d="M200.056 140.33H196.15V135.853H200.056V140.33Z" fill="white"/>
<path d="M206.824 140.33H202.919V135.853H206.824V140.33Z" fill="white"/>
<path d="M129.576 213.961C69.4579 213.961 20.7227 210.733 20.7227 206.751C20.7227 202.769 69.4579 199.541 129.576 199.541C189.694 199.541 238.429 202.769 238.429 206.751C238.429 210.733 189.694 213.961 129.576 213.961Z" fill="#F5F6F7"/>
<path d="M0.000274658 179.231L39.1177 179.391L78.2285 179.451L156.457 179.558L234.685 179.451L273.796 179.391L312.913 179.231L273.796 179.064L234.685 179.003L156.457 178.896L78.2285 179.003L39.1177 179.064L0.000274658 179.231Z" fill="#1A1D23"/>
<path d="M161.342 75.8811C150.045 87.6415 116.109 139.982 113.465 141.545C113.465 141.545 113.465 175.777 132.366 168.942C151.267 162.106 168.593 100.691 172.291 81.1131C174.241 70.7761 170.569 66.2858 161.342 75.8811Z" fill="#A99389"/>
<path d="M164.215 116.344L129.577 112.401C129.577 112.401 151.062 83.8758 162.165 73.6924C173.742 63.0814 179.417 64.5715 174.049 84.671C168.654 104.891 164.215 116.344 164.215 116.344Z" fill="#FF9E66"/>
<path d="M165.844 97.4611C166.225 98.4175 166.468 99.4232 166.565 100.448C165.357 98.7767 164.605 96.8192 164.382 94.7683C165 95.5885 165.493 96.496 165.844 97.4611ZM146.389 98.2429C147.342 97.8612 148.345 97.6182 149.367 97.5213C147.7 98.732 145.746 99.4853 143.699 99.7063C144.517 99.0865 145.424 98.5932 146.389 98.2429ZM151.55 111.727C151.958 110.785 152.497 109.905 153.152 109.115C152.999 110.129 152.702 111.117 152.271 112.048C151.877 112.996 151.341 113.879 150.682 114.667C150.832 113.651 151.124 112.662 151.55 111.727ZM171.873 68.2941C172.047 67.9266 172.22 67.5658 172.421 67.205C172.658 67.1817 172.898 67.1817 173.135 67.205C172.975 67.6927 172.795 68.1605 172.594 68.6282C172.193 69.5747 171.656 70.4573 170.999 71.2476C171.149 70.2266 171.443 69.2322 171.873 68.2941ZM131.955 109.282L132.622 109.549C133.567 109.956 134.45 110.493 135.246 111.146C134.228 110.995 133.237 110.7 132.302 110.271C132.035 110.15 131.774 110.023 131.514 109.883L131.955 109.282ZM158.661 81.745C159.603 82.1497 160.484 82.685 161.278 83.3353C160.26 83.1892 159.268 82.8966 158.333 82.4667C157.39 82.0612 156.509 81.5235 155.716 80.8697C156.739 81.0167 157.736 81.3116 158.674 81.745H158.661ZM160.984 81.8052C161.023 81.832 161.061 81.861 161.097 81.892H160.977C160.977 81.892 160.997 81.8252 160.997 81.8052H160.984Z" fill="white"/>
<path d="M162.555 110.113C161.748 109.926 160.9 109.853 160.078 109.739L157.528 109.385C155.812 109.144 154.09 108.931 152.367 108.717C148.922 108.316 145.477 107.895 142.025 107.554C141.077 107.461 140.122 107.367 139.174 107.293C138.226 107.22 137.171 107.22 136.17 107.146C136.11 107.146 136.11 107.233 136.17 107.24C137.018 107.367 137.859 107.561 138.707 107.694C139.555 107.828 140.456 107.948 141.331 108.055C143.047 108.276 144.776 108.476 146.498 108.67C149.89 109.037 153.288 109.425 156.693 109.726L159.538 109.966C160.532 110.053 161.541 110.2 162.542 110.193C162.55 110.191 162.557 110.186 162.562 110.179C162.567 110.173 162.571 110.165 162.572 110.157C162.573 110.149 162.573 110.141 162.57 110.133C162.567 110.125 162.562 110.119 162.555 110.113Z" fill="#1A1D23"/>
<path opacity="0.1" d="M147.411 114.437L164.209 116.348C164.209 116.348 168.649 104.895 174.05 84.6755C176.327 76.1493 176.614 70.9707 175.305 68.6387L147.411 114.437Z" fill="#1A1D23"/>
<path d="M154.611 187.642H207.295C207.729 185.945 208.15 184.301 208.57 182.631C209.051 180.74 209.525 178.895 209.979 177.098C210.079 176.697 210.186 176.296 210.286 175.902C210.633 174.525 210.974 173.189 211.308 171.893C211.508 171.097 211.708 170.316 211.902 169.541C212.096 168.765 212.302 167.977 212.496 167.222C212.55 167.021 212.596 166.821 212.65 166.627L212.81 165.959L213.01 165.177C213.084 164.903 213.15 164.636 213.217 164.369C213.351 163.861 213.478 163.36 213.598 162.872C213.785 162.15 213.965 161.442 214.139 160.754C214.212 160.453 214.292 160.152 214.366 159.858C214.492 159.377 214.613 158.909 214.726 158.448C214.806 158.141 214.88 157.84 214.953 157.546C215.265 156.335 215.554 155.199 215.821 154.139C215.894 153.858 215.961 153.584 216.035 153.317C216.148 152.856 216.262 152.415 216.368 151.98C216.444 151.713 216.511 151.452 216.569 151.198C216.802 150.29 217.016 149.461 217.196 148.733C217.25 148.539 217.297 148.352 217.343 148.171C217.463 147.69 217.577 147.263 217.67 146.882C217.71 146.728 217.744 146.581 217.784 146.448L217.891 146.027C217.891 145.933 217.937 145.839 217.957 145.759L218.051 145.398C218.051 145.341 218.064 145.287 218.091 145.238L218.211 144.764H166.929C166.929 144.764 165.24 150.59 162.536 159.985C161.989 161.896 161.394 163.995 160.76 166.153C158.964 172.421 156.868 179.731 154.611 187.642Z" fill="#3C4453"/>
<path d="M198.669 187.645H200.004C201.954 179.568 203.843 171.477 205.673 163.369C206.118 161.396 206.563 159.422 207.008 157.449L207.128 156.894C207.13 156.875 207.126 156.856 207.115 156.84C207.104 156.824 207.087 156.812 207.069 156.807C207.05 156.802 207.03 156.804 207.013 156.813C206.996 156.822 206.982 156.836 206.975 156.854C206.975 156.914 206.941 156.974 206.921 157.035C206.329 159.155 205.739 161.278 205.152 163.402C202.895 171.461 200.734 179.542 198.669 187.645Z" fill="#1A1D23"/>
<path d="M168.592 144.77L170.855 156.13L172.711 165.431L175.869 181.281L176.196 182.905L176.737 185.611L177.158 187.642H207.302C207.729 185.938 208.156 184.301 208.57 182.631C209.051 180.74 209.525 178.895 209.979 177.098C210.079 176.697 210.186 176.296 210.286 175.902C210.633 174.525 210.974 173.189 211.308 171.893C211.508 171.097 211.708 170.316 211.902 169.541C212.096 168.765 212.302 167.977 212.496 167.222C212.55 167.021 212.596 166.821 212.65 166.627L212.81 165.959L213.01 165.177C213.084 164.903 213.15 164.636 213.217 164.369C213.351 163.861 213.478 163.36 213.598 162.872C213.785 162.15 213.965 161.442 214.139 160.754C214.219 160.446 214.292 160.152 214.366 159.858C214.492 159.377 214.613 158.909 214.726 158.448C214.806 158.141 214.88 157.84 214.953 157.546C215.265 156.335 215.554 155.199 215.821 154.139C215.894 153.858 215.961 153.584 216.035 153.317C216.148 152.856 216.262 152.415 216.368 151.98C216.444 151.713 216.511 151.452 216.569 151.198C216.802 150.29 217.016 149.461 217.196 148.733C217.25 148.539 217.297 148.352 217.343 148.171C217.463 147.69 217.577 147.263 217.67 146.882C217.71 146.728 217.744 146.581 217.784 146.448L217.891 146.027C217.891 145.933 217.937 145.839 217.957 145.759L218.051 145.398C218.051 145.341 218.064 145.287 218.091 145.238L218.211 144.764L168.592 144.77Z" fill="#1A1D23"/>
<path d="M168.584 144.751C168.584 145.031 168.797 148.092 169.291 152.769C169.431 154.105 169.598 155.629 169.792 157.233C170.092 159.765 170.46 162.578 170.927 165.512C171.715 170.663 172.743 176.283 174.078 181.776C174.552 183.78 175.073 185.711 175.627 187.629H241.824C241.043 177.532 240.329 168.398 239.761 161.202C238.967 151.072 238.426 144.73 238.426 144.73H178.378L168.584 144.751Z" fill="#3C4453"/>
<path d="M168.722 150.839C168.795 153.211 168.895 155.577 169.049 157.936C169.209 160.495 169.443 163.047 169.777 165.6C169.777 165.693 169.777 165.787 169.81 165.881C170.121 168.273 170.48 170.658 170.885 173.037C171.265 175.255 171.552 177.648 172.527 179.719C172.898 180.513 173.425 181.225 174.076 181.811C174.672 182.357 175.403 182.735 176.193 182.906C176.322 182.939 176.454 182.961 176.587 182.973H176.7C176.676 182.987 176.656 183.008 176.643 183.033C176.63 183.057 176.624 183.086 176.627 183.113C176.627 183.909 176.627 184.717 176.72 185.506C176.72 185.539 176.72 185.572 176.72 185.606C176.8 186.274 176.927 186.976 177.054 187.657H178.189V187.617C177.989 186.869 177.822 186.114 177.635 185.359C177.448 184.604 177.181 183.835 177 183.053C176.99 183.024 176.972 182.998 176.947 182.98C177.667 183.014 178.381 182.827 178.992 182.444C179.603 182.061 180.083 181.499 180.365 180.835C180.65 179.819 180.669 178.746 180.419 177.721C180.212 176.385 180.012 175.008 179.805 173.652C179.417 171.159 178.917 168.694 178.469 166.215L178.269 165.085C177.381 160.04 176.453 154.996 175.338 149.997C175.298 149.79 175.251 149.583 175.204 149.376C175.158 149.169 174.951 149.276 174.964 149.409C174.998 149.743 175.031 150.078 175.071 150.418C175.267 152.338 175.489 154.249 175.739 156.152C176.059 158.39 176.279 160.642 176.593 162.88C176.7 163.642 176.807 164.404 176.92 165.166C177.434 168.847 177.969 172.516 178.596 176.198C178.89 177.902 179.931 180.955 177.501 181.483C176.94 181.608 176.353 181.535 175.839 181.276C174.757 180.623 173.948 179.6 173.562 178.396C172.961 176.39 172.526 174.339 172.26 172.262C171.86 170.035 171.503 167.787 171.192 165.52C170.791 162.709 170.373 159.9 169.937 157.094C169.719 155.664 169.496 154.234 169.269 152.804L168.949 150.799C168.942 150.659 168.722 150.699 168.722 150.839Z" fill="#1A1D23"/>
<path d="M227.303 168.453C224.546 168.424 221.804 168.054 219.138 167.35C217.909 167.036 216.694 166.642 215.486 166.248C214.288 165.917 213.168 165.354 212.188 164.591C210.331 162.987 209.47 160.468 208.662 158.223C207.785 155.695 207.074 153.112 206.533 150.491C206.533 150.365 206.319 150.411 206.312 150.532C206.248 153.495 206.624 156.452 207.427 159.305C208.095 161.731 208.99 164.43 210.946 166.127C212.902 167.825 215.793 168.546 218.43 168.867C221.387 169.211 224.376 169.171 227.323 168.747C227.362 168.744 227.398 168.726 227.424 168.697C227.45 168.667 227.463 168.629 227.46 168.59C227.457 168.551 227.439 168.514 227.41 168.489C227.38 168.463 227.342 168.45 227.303 168.453Z" fill="#1A1D23"/>
<path d="M231.903 150.574C232.049 154.28 232.205 157.991 232.37 161.706C232.748 170.353 233.164 178.999 233.618 187.646H234.86C234.291 178.981 233.692 170.321 233.064 161.666C232.793 157.964 232.512 154.265 232.223 150.567C232.222 150.525 232.204 150.484 232.174 150.455C232.143 150.425 232.102 150.409 232.059 150.41C232.017 150.411 231.977 150.429 231.947 150.46C231.918 150.49 231.902 150.531 231.903 150.574Z" fill="#1A1D23"/>
<path d="M157.187 172.196L246.992 165.38C246.992 165.38 228.926 93.7153 193.253 67.3681C184.133 60.6393 174.152 64.9559 169.659 69.9875C158.242 82.8036 156.92 171.908 157.187 172.196Z" fill="#FF9E66"/>
<path d="M189.098 70.6285C189.475 71.5838 189.718 72.5868 189.819 73.6087C189.205 72.7926 188.71 71.8925 188.351 70.9359C187.974 69.9806 187.731 68.9777 187.63 67.9557C188.242 68.7734 188.736 69.6732 189.098 70.6285ZM198.846 109.291C199.23 110.246 199.471 111.252 199.56 112.278C198.358 110.604 197.608 108.647 197.384 106.598C197.997 107.421 198.489 108.328 198.846 109.291ZM230.933 125.869C231.313 126.825 231.556 127.831 231.654 128.856C230.446 127.184 229.693 125.227 229.471 123.176C230.079 124.003 230.571 124.909 230.933 125.869ZM205.035 150.292C205.423 151.243 205.666 152.248 205.756 153.272C204.553 151.598 203.804 149.641 203.58 147.592C204.192 148.417 204.682 149.326 205.035 150.292ZM165.844 97.4502C166.225 98.4065 166.468 99.4122 166.565 100.437C165.357 98.7657 164.605 96.8082 164.382 94.7573C165.001 95.5816 165.494 96.4937 165.844 97.4635V97.4502ZM181.828 146.062C182.216 147.014 182.461 148.018 182.555 149.042C181.942 148.226 181.449 147.326 181.093 146.369C180.713 145.415 180.471 144.412 180.372 143.389C180.984 144.205 181.474 145.105 181.828 146.062ZM214.189 95.6327C214.569 96.5867 214.812 97.5902 214.91 98.6128C213.7 96.9431 212.949 94.9845 212.733 92.9331C213.348 93.7566 213.838 94.6662 214.189 95.6327ZM178.309 82.8032C179.261 82.4183 180.265 82.1752 181.287 82.0815C180.471 82.6921 179.571 83.1826 178.616 83.5382C177.663 83.9246 176.657 84.1678 175.632 84.2598C176.45 83.6476 177.351 83.1569 178.309 82.8032ZM168.134 115.017C169.087 114.634 170.09 114.391 171.112 114.296C170.298 114.909 169.398 115.4 168.441 115.752C167.489 116.138 166.486 116.383 165.464 116.481C166.279 115.874 167.179 115.39 168.134 115.044V115.017ZM165.404 153.519C166.357 153.138 167.36 152.895 168.381 152.797C167.567 153.413 166.667 153.906 165.711 154.261C164.757 154.64 163.755 154.883 162.733 154.982C163.552 154.381 164.451 153.897 165.404 153.546V153.519ZM229.331 150.352C230.284 149.97 231.287 149.727 232.309 149.63C230.642 150.841 228.688 151.594 226.64 151.815C227.464 151.21 228.37 150.726 229.331 150.378V150.352ZM206.224 125.628C207.177 125.245 208.179 125 209.201 124.9C208.386 125.515 207.486 126.01 206.531 126.37C205.576 126.747 204.574 126.99 203.553 127.092C204.37 126.486 205.269 126 206.224 125.648V125.628ZM171.873 68.2765C171.967 68.076 172.06 67.8822 172.16 67.6885C172.487 67.4412 172.828 67.2007 173.195 66.9668C173.03 67.5269 172.829 68.0759 172.594 68.6106C172.193 69.5571 171.656 70.4396 170.999 71.2299C171.151 70.2158 171.445 69.2283 171.873 68.2965V68.2765ZM198.118 89.0575C198.521 88.1118 199.058 87.2295 199.714 86.4382C199.393 88.4764 198.541 90.3939 197.244 91.9976C197.391 90.9802 197.685 89.9897 198.118 89.0575ZM174.944 168.126C175.347 167.182 175.882 166.3 176.533 165.506C176.386 166.523 176.093 167.513 175.665 168.447C175.285 169.325 174.793 170.152 174.203 170.906H174.096C174.25 169.944 174.536 169.009 174.944 168.126ZM183.47 121.559C183.876 120.615 184.414 119.733 185.066 118.94C184.734 120.973 183.886 122.888 182.602 124.499C182.75 123.483 183.042 122.492 183.47 121.559ZM244.64 157.067C244.68 157.207 244.72 157.348 244.767 157.481C244.68 157.575 244.6 157.675 244.52 157.769C244.547 157.539 244.587 157.312 244.64 157.087V157.067ZM217.934 139.239C218.339 138.297 218.877 137.417 219.53 136.627C219.207 138.662 218.355 140.577 217.059 142.18C217.219 141.169 217.52 140.186 217.954 139.26L217.934 139.239ZM212.206 164.965C212.611 164.021 213.148 163.139 213.801 162.346C213.471 164.383 212.62 166.301 211.331 167.912C211.488 166.901 211.789 165.917 212.226 164.992L212.206 164.965ZM167.293 134.014C168.236 134.421 169.117 134.959 169.91 135.611C168.894 135.461 167.905 135.166 166.973 134.736C166.026 134.333 165.142 133.795 164.349 133.139C165.375 133.292 166.374 133.593 167.313 134.034L167.293 134.014ZM238.13 137.916L238.471 138.839C237.751 138.491 237.078 138.053 236.468 137.536C237.041 137.611 237.605 137.745 238.15 137.937L238.13 137.916ZM192.343 160.181C193.287 160.583 194.168 161.119 194.96 161.771C193.943 161.622 192.952 161.33 192.016 160.903C191.073 160.493 190.192 159.953 189.399 159.299C190.426 159.45 191.425 159.754 192.363 160.201L192.343 160.181ZM233.29 166.141L233.751 166.362L232.182 166.482C231.526 166.151 230.912 165.742 230.352 165.266C231.376 165.423 232.372 165.724 233.31 166.161L233.29 166.141ZM217.56 111.195C218.501 111.606 219.381 112.144 220.177 112.792C218.142 112.463 216.227 111.614 214.616 110.326C215.642 110.477 216.64 110.776 217.58 111.215L217.56 111.195ZM194.54 136.787C195.484 137.195 196.365 137.735 197.157 138.391C195.12 138.064 193.204 137.211 191.595 135.919C192.621 136.072 193.619 136.371 194.56 136.807L194.54 136.787ZM182.522 101.606C183.464 102.016 184.344 102.553 185.139 103.203C183.105 102.88 181.19 102.03 179.584 100.738C180.615 100.889 181.617 101.188 182.562 101.626L182.522 101.606Z" fill="white"/>
<path d="M174.745 84.9619C179.926 84.1935 185.187 73.7295 186.095 66.5931C186.155 66.0986 178.084 50.6832 176.822 47.4691C176.561 46.8009 158.562 60.4055 158.562 60.4055C158.562 60.4055 163.235 66.3659 165.418 71.9988C165.572 72.4666 169.738 85.697 174.745 84.9619Z" fill="#A99389"/>
<path d="M158.535 60.4051C158.535 60.4051 163.209 66.3654 165.399 71.9917C165.439 72.1053 165.706 72.9339 166.147 74.1166C175.4 69.4392 179.172 61.0866 180.695 55.574C178.945 52.0659 177.316 48.7717 176.796 47.4687C176.535 46.8072 158.535 60.4051 158.535 60.4051Z" fill="#1A1D23"/>
<path d="M172.66 22.4304C177.928 28.5311 183.196 50.535 180.185 57.2972C175.812 67.093 164.161 72.9798 154.734 66.7188C145.567 60.6448 139.211 31.8454 142.997 25.2435C148.565 15.5145 164.889 13.423 172.66 22.4304Z" fill="#A99389"/>
<path d="M158.584 40.3046C159.252 40.358 159.919 40.3046 160.587 40.3046C161.296 40.4012 162.016 40.2602 162.637 39.9037C162.81 39.7533 162.928 39.55 162.974 39.3253C163.02 39.1006 162.991 38.867 162.89 38.6608C162.63 38.284 162.273 37.9837 161.858 37.7911C161.442 37.5984 160.983 37.5203 160.527 37.565C159.591 37.5098 158.667 37.8051 157.936 38.3935C157.782 38.5393 157.672 38.7265 157.621 38.9328C157.569 39.1392 157.578 39.3559 157.647 39.5573C157.715 39.7587 157.84 39.9362 158.006 40.0687C158.172 40.2012 158.373 40.283 158.584 40.3046Z" fill="#1A1D23"/>
<path d="M159.174 43.5314C159.174 43.4712 159.307 43.5782 159.321 43.645C159.568 45.1484 160.108 46.8323 161.557 47.0595C161.604 47.0595 161.617 47.1397 161.557 47.1464C159.868 47.2399 159.174 45.0014 159.174 43.5314Z" fill="#1A1D23"/>
<path d="M160.206 41.7023C162.576 41.0341 163.725 45.8384 161.542 46.4465C159.358 47.0546 158.223 42.2569 160.206 41.7023Z" fill="#1A1D23"/>
<path d="M150.562 45.3842C150.562 45.3307 150.462 45.4844 150.475 45.5445C150.876 47.0146 151.09 48.7719 149.868 49.5537C149.828 49.5537 149.868 49.654 149.901 49.6339C151.484 49.0459 151.176 46.7206 150.562 45.3842Z" fill="#1A1D23"/>
<path d="M148.868 44.1566C146.438 44.5441 147.392 49.3752 149.642 49.0144C151.892 48.6535 150.904 43.8291 148.868 44.1566Z" fill="#1A1D23"/>
<path d="M146.406 41.7735C147.019 41.4882 147.617 41.1692 148.195 40.818C148.874 40.567 149.449 40.0968 149.831 39.4816C149.915 39.2666 149.925 39.0299 149.859 38.8086C149.794 38.5873 149.657 38.3939 149.47 38.2588C148.649 37.7242 147.701 37.9714 146.86 38.3857C146.002 38.7767 145.32 39.4718 144.944 40.3369C144.865 40.5403 144.847 40.7624 144.893 40.9758C144.939 41.1892 145.046 41.3844 145.202 41.5373C145.358 41.6902 145.555 41.794 145.769 41.836C145.983 41.878 146.204 41.8563 146.406 41.7735Z" fill="#1A1D23"/>
<path d="M164.142 56.3926C163.875 56.8269 163.635 57.3882 163.107 57.562C162.551 57.6821 161.975 57.6821 161.418 57.562C161.407 57.5609 161.396 57.5634 161.386 57.5692C161.376 57.575 161.369 57.5837 161.364 57.5941C161.36 57.6045 161.359 57.6161 161.361 57.6271C161.364 57.6381 161.37 57.6481 161.378 57.6555C161.659 57.8958 162 58.0556 162.364 58.118C162.729 58.1803 163.103 58.1429 163.448 58.0097C163.732 57.8597 163.965 57.6283 164.118 57.345C164.27 57.0617 164.334 56.7394 164.303 56.4193C164.303 56.3325 164.182 56.3258 164.142 56.3926Z" fill="#1A1D23"/>
<path d="M161.524 52.3235C161.286 53.0002 160.911 53.6205 160.423 54.1459C159.935 54.6713 159.344 55.0904 158.686 55.3772C158.115 55.6351 157.511 55.8106 156.891 55.8984C156.774 55.9245 156.656 55.938 156.537 55.9384C156.423 55.9456 156.31 55.9456 156.196 55.9384C156.114 55.9435 156.032 55.9205 155.964 55.8732C155.896 55.8259 155.846 55.7571 155.822 55.6779C155.819 55.6244 155.819 55.5709 155.822 55.5175V55.3838C155.522 54.2479 155.215 52.4838 155.215 52.4838C154.848 52.7912 152.951 54.2613 152.838 53.6532C151.95 48.6417 150.968 43.0689 151.142 37.8903C151.142 37.8531 151.157 37.8174 151.183 37.7911C151.209 37.7648 151.245 37.75 151.282 37.75C151.319 37.75 151.355 37.7648 151.381 37.7911C151.408 37.8174 151.422 37.8531 151.422 37.8903C152.464 42.6746 152.658 47.6127 153.632 52.4371C154.285 51.9002 155.012 51.4592 155.789 51.1274C155.962 51.1274 156.316 54.5486 156.497 55.0431C156.495 55.0608 156.495 55.0787 156.497 55.0965C158.5 54.8827 159.781 53.9539 161.337 52.2233C161.437 52.1097 161.584 52.1832 161.524 52.3235Z" fill="#1A1D23"/>
<path d="M157.425 55.1623C158.248 55.8265 159.228 56.2683 160.27 56.4453C160.84 56.5248 161.421 56.4243 161.932 56.1579C163.04 55.5632 162.813 54.4674 162.373 53.5854C162.133 53.1205 161.839 52.6854 161.498 52.2891C160.482 53.6578 159.055 54.6647 157.425 55.1623Z" fill="#1A1D23"/>
<path d="M160.27 56.4458C160.84 56.5253 161.421 56.4249 161.932 56.1585C163.04 55.5638 162.813 54.468 162.373 53.5859C161.131 54.0203 160.083 55.1896 160.27 56.4458Z" fill="#CFD4DD"/>
<path d="M140.984 33.8121C150.331 37.7278 159.785 26.8962 159.785 26.8962C160.856 28.5401 162.429 29.7938 164.27 30.4704C166.111 31.1471 168.12 31.2106 170 30.6515C170 30.6515 174.487 44.1959 178.145 43.3807C183.707 42.1913 181.484 22.907 178.967 19.5527C176.45 16.1983 171.509 16.2117 171.509 16.2117C171.509 16.2117 170.568 13.3985 166.575 11.4808C162.169 9.35591 149.884 16.0179 149.884 16.0179C148.769 14.4174 147.294 13.1014 145.578 12.1757C145.163 11.9427 144.706 11.7963 144.233 11.7453C143.761 11.6943 143.283 11.7399 142.829 11.8792C142.374 12.0185 141.953 12.2487 141.59 12.5558C141.227 12.8629 140.93 13.2405 140.717 13.6658C141.629 14.5439 142.33 15.6177 142.767 16.8064C144.269 20.7354 140.951 21.4236 140.21 17.7285C139.888 16.3571 140.068 14.9157 140.717 13.6658C138.581 11.5944 135.743 11.3672 134.388 12.9976C131.897 15.9845 133.206 30.5646 140.984 33.8121Z" fill="#3F3028"/>
<path d="M163.908 50.9667C165.059 50.5977 166.082 49.9128 166.862 48.9902C167.643 48.0675 168.148 46.9441 168.322 45.7479C168.496 44.5517 168.33 43.3307 167.844 42.224C167.359 41.1173 166.572 40.1693 165.574 39.4881C164.577 38.8068 163.408 38.4196 162.201 38.3706C160.994 38.3215 159.798 38.6126 158.748 39.2106C157.699 39.8087 156.838 40.6897 156.264 41.7533C155.691 42.817 155.427 44.0205 155.503 45.2269C155.566 46.2065 155.851 47.1589 156.337 48.0117C156.823 48.8645 157.497 49.5953 158.307 50.1486C159.117 50.7019 160.043 51.0631 161.013 51.2049C161.984 51.3466 162.974 51.2652 163.908 50.9667ZM160.223 39.5071C160.656 39.3667 161.104 39.2792 161.558 39.2465C162.981 39.1454 164.389 39.5916 165.495 40.4939C166.601 41.3963 167.321 42.6869 167.508 44.1023C167.695 45.5178 167.336 46.9514 166.503 48.1108C165.671 49.2702 164.427 50.0679 163.027 50.3412C161.627 50.6145 160.175 50.3427 158.968 49.5814C157.761 48.8201 156.89 47.6266 156.532 46.2443C156.175 44.8621 156.357 43.3954 157.043 42.1434C157.729 40.8914 158.866 39.9485 160.223 39.5071Z" fill="#CFD4DD"/>
<path d="M149.683 53.6695C151.993 52.8009 153.195 49.6603 152.354 46.3795C151.995 44.8098 151.152 43.393 149.944 42.3301C149.455 41.8376 148.848 41.4803 148.18 41.2932C147.513 41.106 146.808 41.0954 146.135 41.2624C145.463 41.4294 144.845 41.7683 144.342 42.2459C143.839 42.7235 143.469 43.3235 143.267 43.9873C142.701 45.495 142.62 47.1418 143.033 48.6981C143.888 52.146 146.672 54.438 149.242 53.7965C149.393 53.7675 149.54 53.725 149.683 53.6695ZM146.071 42.2099L146.385 42.1163C146.924 42.0073 147.482 42.0299 148.011 42.1823C148.54 42.3346 149.024 42.6123 149.423 42.9917C150.489 43.9389 151.234 45.1956 151.553 46.5866C152.294 49.5801 151.192 52.44 149.076 52.9612C146.959 53.4824 144.649 51.4778 143.908 48.491C143.536 47.1122 143.606 45.6515 144.108 44.3147C144.27 43.8457 144.528 43.4158 144.866 43.0532C145.204 42.6906 145.615 42.4032 146.071 42.2099Z" fill="#CFD4DD"/>
<path d="M155.857 45.927L156.271 45.172C155.156 44.5505 152.725 43.9091 151.504 45.8402L152.238 46.2945C153.326 44.5639 155.757 45.8669 155.857 45.927Z" fill="#CFD4DD"/>
<path d="M184.354 41.9841L185.022 41.4495C184.768 41.1355 182.518 38.3758 180.575 38.4426C178.753 38.5094 167.63 41.7836 167.156 41.9507L167.403 42.7792C170.594 41.8304 179.193 39.3513 180.602 39.3046C181.897 39.2578 183.747 41.2223 184.354 41.9841Z" fill="#CFD4DD"/>
<path d="M175.757 42.1234C175.757 42.1234 177.553 33.517 181.265 33.8845C184.977 34.252 185.605 45.3241 182.634 48.1506C182.279 48.5392 181.849 48.8519 181.37 49.0699C180.892 49.2879 180.374 49.4067 179.848 49.4192C179.322 49.4317 178.799 49.3376 178.311 49.1425C177.822 48.9475 177.378 48.6555 177.005 48.2842L175.757 42.1234Z" fill="#A99389"/>
<path d="M181.366 37.0651C181.42 37.0317 181.466 37.1052 181.426 37.1519C179.377 39.21 179.063 42.0632 179.163 44.8296C179.51 43.6001 180.298 42.6646 181.9 43.0188C181.981 43.0188 181.96 43.1591 181.9 43.1791C181.406 43.2248 180.938 43.4239 180.562 43.7486C180.187 44.0732 179.921 44.5072 179.804 44.9899C179.608 45.7957 179.499 46.62 179.477 47.4489C179.477 47.7229 179.009 47.7763 178.983 47.4489C178.986 47.4268 178.986 47.4043 178.983 47.3821C177.554 44.295 178.115 38.8291 181.366 37.0651Z" fill="#1A1D23"/>
<path d="M129.987 102.529C128.298 98.0788 89.1339 106.137 90.6962 112.96C96.4313 137.95 112.415 160.282 116.454 165.387C121.755 172.069 132.304 170.585 136.15 166.536C141.724 160.663 131.656 106.939 129.987 102.529Z" fill="#A99389"/>
<path d="M132.747 114.797C133.617 117.192 134.307 119.649 134.81 122.147C135.377 124.619 135.871 127.105 136.272 129.604C137.064 134.659 137.51 139.763 137.607 144.879C137.68 147.739 137.607 150.592 137.607 153.452C137.607 153.519 137.5 153.512 137.5 153.452C137.5 150.92 137.347 148.367 137.14 145.841C136.933 143.316 136.679 140.743 136.352 138.21C135.718 133.232 135.017 128.261 134.115 123.323C133.866 121.938 133.606 120.557 133.334 119.18C133.047 117.75 132.72 116.327 132.533 114.877C132.533 114.77 132.7 114.676 132.747 114.797Z" fill="#1A1D23"/>
<path d="M139.432 32.0956C139.69 35.4985 140.199 38.8776 140.955 42.2054C141.081 42.7734 141.222 43.3548 141.362 43.9294C141.923 46.2147 142.59 48.5133 143.365 50.725C143.543 51.2596 143.73 51.7875 143.926 52.3086C146.296 58.7167 149.427 64.2294 152.952 66.5681C153.847 67.1689 154.798 67.6835 155.79 68.1049C160.843 65.1552 165.063 60.967 168.054 55.9346C171.044 50.9022 172.705 45.1911 172.881 39.3389L173.95 39.0448C173.783 38.7842 173.609 38.517 173.442 38.2363C173.275 37.9557 173.068 37.6015 172.888 37.2674C172.621 28.6645 169.149 20.4727 163.154 14.3013C154.762 12.0428 144.713 15.2702 140.487 22.6405C139.459 24.4647 139.145 27.8992 139.432 32.0956Z" fill="#A99389"/>
<path d="M157.024 38.588C157.734 38.6248 158.445 38.6248 159.154 38.588C159.975 38.588 160.629 38.6482 161.331 38.1604C161.519 38.0005 161.648 37.7815 161.697 37.5388C161.745 37.2961 161.71 37.0442 161.598 36.824C161.083 35.9152 160.082 35.6814 159.094 35.6613C158.102 35.6025 157.124 35.9145 156.35 36.5367C156.178 36.689 156.055 36.8883 155.995 37.11C155.935 37.3317 155.941 37.5661 156.013 37.7842C156.085 38.0024 156.219 38.1947 156.398 38.3376C156.578 38.4804 156.796 38.5675 157.024 38.588Z" fill="#1A1D23"/>
<path d="M157.646 42.0405C157.646 41.9804 157.786 42.0939 157.799 42.1541C158.06 43.7511 158.634 45.5352 160.17 45.7757C160.216 45.7757 160.23 45.8626 160.17 45.8693C158.38 45.9361 157.646 43.564 157.646 42.0405Z" fill="#1A1D23"/>
<path d="M158.734 40.0742C161.244 39.3726 162.459 44.4509 160.136 45.0991C157.813 45.7472 156.631 40.6622 158.734 40.0742Z" fill="#1A1D23"/>
<path d="M148.523 43.9638C148.523 43.9104 148.416 44.0708 148.436 44.1376C148.863 45.6945 149.104 47.5521 147.768 48.4141C147.728 48.4141 147.768 48.521 147.802 48.5009C149.498 47.8394 149.177 45.3804 148.523 43.9638Z" fill="#1A1D23"/>
<path d="M146.725 42.6634C144.155 43.0777 145.17 48.1961 147.553 47.8152C149.937 47.4344 148.882 42.3159 146.725 42.6634Z" fill="#1A1D23"/>
<path d="M144.119 40.1436C144.787 39.8563 145.368 39.4754 146.009 39.1346C146.724 38.8717 147.334 38.3811 147.744 37.7381C147.832 37.5112 147.842 37.2618 147.773 37.0285C147.705 36.7953 147.561 36.5913 147.364 36.4485C146.489 35.8805 145.488 36.1411 144.6 36.5821C143.7 36.9986 142.986 37.7343 142.597 38.6469C142.521 38.8584 142.507 39.0872 142.558 39.3062C142.608 39.5252 142.719 39.7253 142.879 39.8827C143.04 40.0402 143.241 40.1484 143.461 40.1947C143.681 40.2409 143.909 40.2232 144.119 40.1436Z" fill="#1A1D23"/>
<path d="M162.905 55.6312C162.618 56.0856 162.364 56.6803 161.803 56.8674C161.216 56.9976 160.608 56.9976 160.02 56.8674C160.009 56.867 159.997 56.87 159.987 56.8762C159.977 56.8824 159.969 56.8914 159.964 56.902C159.959 56.9127 159.957 56.9246 159.959 56.9363C159.961 56.9479 159.966 56.9588 159.974 56.9676C160.272 57.2229 160.634 57.3925 161.02 57.4584C161.407 57.5243 161.805 57.484 162.17 57.3418C162.47 57.182 162.716 56.9366 162.876 56.6368C163.037 56.3371 163.105 55.9964 163.072 55.6579C163.078 55.5644 162.951 55.5644 162.905 55.6312Z" fill="#1A1D23"/>
<path d="M160.127 51.3166C159.878 52.0346 159.483 52.6933 158.967 53.251C158.451 53.8088 157.826 54.2536 157.13 54.5574C156.525 54.8304 155.884 55.015 155.227 55.1053C155.102 55.1337 154.974 55.1493 154.846 55.1521C154.728 55.1595 154.61 55.1595 154.492 55.1521C154.405 55.1577 154.318 55.1338 154.245 55.0842C154.172 55.0345 154.119 54.962 154.092 54.8781C154.085 54.8249 154.085 54.771 154.092 54.7178V54.5774C153.771 53.3747 153.424 51.5037 153.424 51.5037C153.037 51.8311 151.027 53.3881 150.914 52.7466C149.973 47.401 148.911 41.5275 149.111 36.0415C149.111 36.0025 149.127 35.9652 149.154 35.9376C149.182 35.91 149.219 35.8945 149.258 35.8945C149.297 35.8945 149.334 35.91 149.362 35.9376C149.39 35.9652 149.405 36.0025 149.405 36.0415C150.513 41.1065 150.74 46.3385 151.748 51.4102C152.463 50.8571 153.252 50.4072 154.092 50.0738C154.272 50.0738 154.653 53.6954 154.84 54.2233C154.837 54.241 154.837 54.2591 154.84 54.2768C156.929 54.0496 158.318 53.074 159.96 51.2298C160.041 51.0961 160.194 51.1696 160.127 51.3166Z" fill="#1A1D23"/>
<path d="M155.791 54.3249C156.663 55.0224 157.7 55.4827 158.802 55.6613C159.405 55.7479 160.02 55.6402 160.558 55.3539C161.739 54.7258 161.492 53.5631 161.025 52.6343C160.773 52.1408 160.464 51.6787 160.104 51.2578C159.03 52.7151 157.519 53.7899 155.791 54.3249Z" fill="#1A1D23"/>
<path d="M158.806 55.6793C159.409 55.7659 160.024 55.6583 160.562 55.3719C161.744 54.7438 161.497 53.5811 161.03 52.6523C159.721 53.1134 158.606 54.3429 158.806 55.6793Z" fill="#CFD4DD"/>
<path d="M138.38 31.7122C138.733 31.8592 139.087 31.9862 139.434 32.0931C148.995 35.0599 158.295 24.3821 158.295 24.3821C159.425 26.1287 161.088 27.463 163.038 28.1855C164.987 28.9081 167.118 28.9803 169.111 28.3913C170.148 31.4489 171.418 34.4222 172.91 37.285C172.731 31.6031 171.152 26.0533 168.315 21.1285C165.478 16.2036 161.47 12.0559 156.646 9.05353C153.601 10.1231 150.638 11.4139 147.78 12.9157C146.596 11.2207 145.032 9.82702 143.213 8.84639C142.775 8.59926 142.291 8.44369 141.791 8.38911C141.291 8.33454 140.785 8.38209 140.304 8.52889C139.823 8.67569 139.376 8.91868 138.991 9.24316C138.607 9.56764 138.292 9.96686 138.066 10.4167C139.029 11.3541 139.771 12.4957 140.236 13.7577C141.825 17.9139 138.313 18.6422 137.532 14.7332C137.187 13.279 137.376 11.7491 138.066 10.4233C135.802 8.23832 132.798 7.99777 131.389 9.75514C128.759 12.8422 130.134 28.271 138.38 31.7122Z" fill="#3F3028"/>
<path d="M156.212 38.1299C157.324 37.2032 158.701 36.6555 160.145 36.5663C160.579 36.5381 161.015 36.5538 161.447 36.6131C162.529 36.7531 163.562 37.1508 164.458 37.7728C165.355 38.3949 166.09 39.2231 166.601 40.188C166.749 40.4578 166.874 40.7394 166.975 41.0299C167.207 41.6472 167.344 42.296 167.382 42.9543C167.475 44.4707 167.062 45.975 166.208 47.2306C165.353 48.4862 164.106 49.4218 162.662 49.8903C162.12 50.0608 161.56 50.1662 160.993 50.2043H160.565C158.929 50.2074 157.345 49.6233 156.102 48.558C154.859 47.4927 154.038 46.0167 153.789 44.3977C153.789 44.2039 153.742 44.0101 153.729 43.8096C153.715 43.6092 153.729 43.5156 153.729 43.3753C153.731 42.3718 153.955 41.3813 154.384 40.4745C154.813 39.5677 155.438 38.7671 156.212 38.1299ZM160.939 49.2889C162.375 49.1969 163.728 48.5847 164.745 47.5666C165.762 46.5486 166.373 45.1946 166.465 43.758C166.556 42.3213 166.122 40.9005 165.243 39.7613C164.363 38.6221 163.099 37.8426 161.687 37.5686C161.197 37.4735 160.696 37.4421 160.198 37.4751C159.708 37.5071 159.224 37.5991 158.756 37.7491C158.16 37.9408 157.599 38.2274 157.094 38.5977C156.056 39.3496 155.291 40.4188 154.913 41.644C154.535 42.8693 154.565 44.1842 154.999 45.3906C155.433 46.5971 156.247 47.6297 157.319 48.3328C158.39 49.0359 159.661 49.3715 160.939 49.2889Z" fill="white"/>
<path d="M140.834 42.4886L140.954 42.2013C141.363 41.2618 142.066 40.4808 142.957 39.9761C143.245 39.816 143.552 39.6947 143.872 39.6153C144.337 39.502 144.819 39.4748 145.294 39.5351C146.262 39.6706 147.169 40.0864 147.904 40.7312C148.456 41.2018 148.934 41.7539 149.32 42.3683C149.614 42.8236 149.862 43.3071 150.061 43.8116C150.197 44.1369 150.309 44.4719 150.395 44.8139C150.419 44.8817 150.439 44.9509 150.455 45.0211C150.851 46.5362 150.809 48.1326 150.335 49.625C150.137 50.3161 149.788 50.9546 149.313 51.4943C148.839 52.034 148.25 52.4613 147.591 52.7455C147.45 52.7989 147.31 52.839 147.163 52.8791C146.61 53.0047 146.038 53.0186 145.48 52.9199C144.921 52.8212 144.388 52.612 143.912 52.3045C142.211 51.1922 141.013 49.4582 140.574 47.4734C140.138 45.8253 140.229 44.0821 140.834 42.4886ZM141.502 47.2529C141.805 48.5562 142.453 49.7539 143.378 50.7208C143.813 51.2286 144.374 51.613 145.004 51.8358C145.635 52.0586 146.312 52.1119 146.97 51.9904C149.213 51.4358 150.381 48.4088 149.593 45.2416C149.257 43.769 148.47 42.4379 147.343 41.4328C146.919 41.0313 146.405 40.7374 145.844 40.5758C145.283 40.4142 144.691 40.3896 144.119 40.504C144.008 40.5304 143.898 40.5639 143.792 40.6043C143.308 40.8105 142.873 41.1156 142.515 41.4999C142.156 41.8842 141.881 42.3393 141.709 42.836C141.566 43.1875 141.458 43.5524 141.388 43.9252C141.175 45.0275 141.204 46.1632 141.475 47.2529H141.502Z" fill="white"/>
<path d="M154.135 44.5419L154.569 43.7401C153.387 43.0719 150.81 42.4037 149.522 44.4751L150.296 44.9562C151.451 43.0986 154.022 44.4818 154.135 44.5419Z" fill="white"/>
<path d="M166.105 40.3334L166.366 41.2087L166.973 41.0283C168.475 40.5873 170.692 39.9458 172.902 39.3311L173.97 39.037C173.803 38.7764 173.63 38.5092 173.463 38.2285L172.922 38.3822C170.251 39.1172 167.668 39.8723 166.599 40.1864L166.105 40.3334Z" fill="white"/>
<g opacity="0.3">
<path d="M131.088 71.9727C137.74 73.4389 144.677 72.898 151.022 70.4184C157.366 67.9388 162.834 63.6319 166.733 58.0422C170.632 52.4526 172.787 45.8314 172.925 39.0159C173.064 32.2004 171.181 25.4968 167.513 19.7528C163.845 14.0088 158.557 9.48247 152.319 6.74616C146.08 4.00985 139.171 3.1865 132.465 4.38023C125.759 5.57396 119.557 8.73115 114.644 13.4525C109.731 18.1739 106.327 24.2474 104.863 30.905C103.89 35.325 103.797 39.8935 104.588 44.3496C105.38 48.8057 107.041 53.0621 109.476 56.8757C111.911 60.6893 115.073 63.9854 118.782 66.5758C122.49 69.1662 126.672 71 131.088 71.9727Z" fill="white"/>
<path d="M168.696 54.8594C164.334 62.8289 157.005 68.7532 148.302 71.3445C139.6 73.9358 130.227 72.9847 122.221 68.6978L168.696 54.8594Z" fill="#F5F6F7"/>
<path d="M167.707 20.0941L104.054 39.051C103.998 36.3138 104.267 33.5796 104.855 30.9056C105.521 27.8381 106.61 24.8784 108.093 22.1121L155.082 8.11328C160.245 10.9605 164.592 15.0856 167.707 20.0941Z" fill="#F5F6F7"/>
<path d="M172.676 42.3389L112.047 60.3803C110.602 58.6439 109.33 56.7708 108.248 54.7875L172.81 35.5566C172.996 37.816 172.951 40.0886 172.676 42.3389Z" fill="#F5F6F7"/>
<path d="M169.914 24.266L104.485 43.7574C104.418 43.3431 104.358 42.9289 104.311 42.5146L169.393 23.1367C169.573 23.5042 169.754 23.8784 169.914 24.266Z" fill="#F5F6F7"/>
<path d="M144.189 4.33122L115.146 12.9778C115.901 12.2761 116.695 11.6413 117.516 10.9731L141.104 3.95703C142.138 4.02874 143.168 4.15363 144.189 4.33122Z" fill="#F5F6F7"/>
</g>
<path d="M126.35 114.576L117.509 112.627L126.071 73.7146L134.913 75.6633L126.35 114.576Z" fill="#F5F6F7"/>
<path d="M101.097 30.0751C102.725 22.6745 106.509 15.9234 111.971 10.6754C117.433 5.42742 124.327 1.91827 131.782 0.591687C139.237 -0.734892 146.917 0.180689 153.852 3.22265C160.786 6.26462 166.664 11.2963 170.742 17.6816C174.819 24.0668 176.913 31.5187 176.759 39.0949C176.605 46.6712 174.209 54.0316 169.875 60.2453C165.541 66.4591 159.464 71.2471 152.411 74.0039C145.358 76.7608 137.647 77.3626 130.253 75.7333C120.339 73.5452 111.698 67.5066 106.231 58.9449C100.764 50.3832 98.9168 39.999 101.097 30.0751ZM131.087 71.9713C137.739 73.4389 144.676 72.8992 151.022 70.4206C157.367 67.942 162.835 63.6358 166.735 58.0466C170.635 52.4574 172.791 45.8363 172.931 39.0206C173.071 32.2049 171.188 25.5009 167.52 19.7563C163.853 14.0117 158.565 9.48458 152.327 6.74758C146.089 4.01058 139.179 3.1866 132.473 4.37984C125.767 5.57308 119.565 8.72994 114.651 13.4512C109.738 18.1724 106.333 24.246 104.869 30.9037C103.896 35.3232 103.802 39.8912 104.593 44.347C105.384 48.8027 107.045 53.0589 109.479 56.8724C111.914 60.686 115.075 63.9822 118.783 66.5729C122.49 69.1636 126.671 70.998 131.087 71.9713Z" fill="#5E6A82"/>
<path d="M122.695 141.958L109.322 139.011L116.907 104.512L130.286 107.458L122.695 141.958Z" fill="#1A1D23"/>
<path d="M115.927 40.5151C115.859 40.9545 115.662 41.3639 115.362 41.6914C115.061 42.0188 114.671 42.2497 114.239 42.3546C113.807 42.4595 113.354 42.4339 112.937 42.2808C112.52 42.1277 112.158 41.8542 111.896 41.4948C111.635 41.1355 111.486 40.7065 111.468 40.2623C111.45 39.818 111.565 39.3786 111.797 38.9995C112.029 38.6205 112.368 38.319 112.772 38.1332C113.176 37.9474 113.625 37.8857 114.064 37.9559C114.649 38.0496 115.174 38.3714 115.523 38.8509C115.872 39.3305 116.017 39.9288 115.927 40.5151Z" fill="white"/>
<path d="M93.3241 120.77C93.3241 120.77 83.7634 105.04 95.6675 90.0323C100.568 83.8581 112.132 72.786 135.593 74.3295C141.161 74.697 148.832 79.1673 139.525 81.8735C132.916 83.7979 128.142 83.0161 124.497 84.8336C124.497 84.8336 133.583 91.6827 132.996 97.2488C132.735 99.7345 132.542 105.167 131.106 110.339C131.106 110.339 129.223 111.675 127.695 111.448C127.695 111.448 123.575 123.342 108.76 126.997L93.3241 120.77Z" fill="#A99389"/>
<path d="M100.697 88.0124C104.529 86.4822 112.715 83.3818 120.292 83.168C128.711 82.9341 144.995 84.7583 145.095 90.9792C145.176 95.543 138.9 95.3894 138.9 95.3894C138.9 95.3894 145.469 97.561 144.635 101.697C143.88 105.466 139.033 105.038 139.033 105.038C139.033 105.038 142.792 107.043 141.363 110.531C139.647 114.727 132.056 109.863 126.675 112.589C125.433 113.23 100.697 88.0124 100.697 88.0124Z" fill="#A99389"/>
<path d="M119.069 92.1148C122.908 91.2729 132.128 91.5936 138.818 95.2487C138.972 95.3288 138.992 95.4892 138.818 95.4424C132.39 93.5662 125.759 92.4758 119.069 92.195C119.009 92.195 119.009 92.1616 119.069 92.1148Z" fill="#1A1D23"/>
<path d="M119.534 100.61C122.926 100.222 132.413 100.977 139.063 104.913C139.216 105 139.223 105.16 139.063 105.107C132.737 102.9 126.181 101.419 119.521 100.69C119.51 100.688 119.501 100.682 119.494 100.674C119.488 100.665 119.486 100.654 119.487 100.643C119.489 100.633 119.495 100.623 119.504 100.617C119.513 100.611 119.524 100.608 119.534 100.61Z" fill="#1A1D23"/>
<path d="M105.87 128.02C109.269 127.212 112.55 125.97 115.631 124.324C118.735 122.644 121.481 120.374 123.717 117.642C124.384 116.807 125.052 115.938 125.633 115.05C126.214 114.161 126.855 113.152 127.542 112.27C127.596 112.203 127.723 112.27 127.682 112.33C126.909 114.185 125.956 115.96 124.838 117.629C123.836 119.19 122.638 120.616 121.273 121.872C118.579 124.271 115.387 126.042 111.926 127.057C109.961 127.605 107.949 127.97 105.917 128.146C105.817 128.173 105.777 128.04 105.87 128.02Z" fill="#1A1D23"/>
<path d="M203.327 77.6841C220.525 100.797 249.227 161.036 253.447 169.896C256.311 175.91 224.912 191.746 223.583 187.376C221.874 181.777 193.799 107.86 189.867 80.9116C187.717 66.1376 197.378 69.6858 203.327 77.6841Z" fill="#A99389"/>
<path d="M222.736 184.37C223.464 189.816 227.162 200.788 229.913 202.465C232.664 204.142 247.118 203.801 254.402 203.801C261.687 203.801 263.082 201.763 262.995 199.257C262.908 196.752 247.592 196.271 247.592 196.271C247.592 196.271 268.009 202.097 273.143 203.08C278.278 204.062 290.102 207.022 291.837 202.765C292.605 200.841 289.367 198.897 289.367 198.897C289.367 198.897 294.328 200.347 295.122 197.881C296.017 195.068 292.071 193.524 292.071 193.524C292.071 193.524 295.176 194.146 295.249 191.854C295.383 186.709 275.967 184.196 275.967 184.196C275.967 184.196 290.829 191.439 291.323 187.257C291.991 181.477 261.52 175.135 258.348 172.616C256.041 170.691 253.883 168.594 251.892 166.342L222.736 184.37Z" fill="#A99389"/>
<path d="M262.888 200.5C262.939 200.145 262.906 199.783 262.79 199.444C262.674 199.105 262.478 198.798 262.22 198.549C261.697 198.069 261.096 197.681 260.444 197.4C259.097 196.827 257.701 196.38 256.272 196.063C253.401 195.335 250.456 194.82 247.525 194.059C250.547 194.013 253.562 194.35 256.499 195.061C257.999 195.406 259.444 195.959 260.791 196.705C261.489 197.089 262.1 197.612 262.587 198.242C262.827 198.561 262.98 198.936 263.033 199.332C263.086 199.727 263.036 200.13 262.888 200.5Z" fill="#1A1D23"/>
<path d="M289.318 198.87C287.215 198.355 285.145 197.767 283.082 197.166C281.019 196.565 278.963 195.937 276.907 195.315L270.758 193.391C268.708 192.723 266.658 192.108 264.589 191.486C266.737 191.723 268.867 192.105 270.965 192.629C273.074 193.11 275.144 193.711 277.207 194.34C279.27 194.968 281.313 195.676 283.329 196.424C285.346 197.173 287.382 197.961 289.318 198.87Z" fill="#1A1D23"/>
<path d="M269.543 186.371C271.523 186.495 273.491 186.768 275.431 187.186C277.378 187.574 279.301 188.069 281.193 188.67C283.089 189.258 284.951 189.954 286.768 190.754C288.592 191.535 290.357 192.446 292.049 193.481C290.173 192.813 288.344 192.111 286.481 191.476C284.618 190.841 282.762 190.213 280.886 189.639C279.01 189.064 277.134 188.496 275.244 187.941C273.355 187.387 271.459 186.906 269.543 186.371Z" fill="#1A1D23"/>
<path d="M272.545 181.51C275.735 181.767 278.877 182.441 281.892 183.514C284.937 184.524 287.835 185.93 290.512 187.697C287.494 186.622 284.556 185.486 281.559 184.483C278.561 183.481 275.59 182.492 272.545 181.51Z" fill="#1A1D23"/>
<path d="M196.016 117.301L230.867 116.339C230.867 116.339 211.873 86.0829 201.698 74.9841C191.075 63.4242 185.294 64.4198 188.919 84.9002C192.571 105.521 196.016 117.301 196.016 117.301Z" fill="#FF9E66"/>
<path d="M217.584 111.215C218.524 111.627 219.404 112.164 220.201 112.812C218.166 112.483 216.25 111.634 214.639 110.347C215.657 110.493 216.649 110.785 217.584 111.215ZM198.122 89.0578C198.524 88.1121 199.062 87.2298 199.717 86.4385C199.396 88.4767 198.544 90.3943 197.247 91.9979C197.394 90.9805 197.688 89.99 198.122 89.0578ZM214.192 95.633C214.573 96.587 214.815 97.5905 214.913 98.6131C213.703 96.9434 212.952 94.9848 212.736 92.9334C213.351 93.7569 213.842 94.6665 214.192 95.633ZM198.836 109.291C199.22 110.246 199.461 111.252 199.55 112.278C198.348 110.604 197.598 108.648 197.374 106.598C197.991 107.421 198.488 108.328 198.849 109.291H198.836ZM188.621 69.5664C188.788 69.9139 188.941 70.268 189.088 70.6288C189.465 71.5841 189.708 72.5871 189.809 73.609C189.195 72.7929 188.7 71.8928 188.341 70.9362C188.307 70.8494 188.28 70.7692 188.254 70.6823C188.349 70.3003 188.476 69.927 188.634 69.5664H188.621Z" fill="white"/>
<path d="M198.201 111.235C199.029 111.115 199.877 111.115 200.704 111.075L203.275 110.934C205.002 110.85 206.736 110.781 208.476 110.727C211.948 110.62 215.413 110.5 218.878 110.453C219.833 110.453 220.787 110.453 221.742 110.453C222.697 110.453 223.745 110.553 224.746 110.56C224.807 110.56 224.8 110.654 224.746 110.654C223.892 110.707 223.037 110.834 222.176 110.887C221.315 110.941 220.42 110.994 219.539 111.028C217.803 111.095 216.067 111.155 214.331 111.195C210.919 111.275 207.501 111.369 204.089 111.375H201.192C200.197 111.375 199.189 111.429 198.187 111.342C198.161 111.322 198.147 111.242 198.201 111.235Z" fill="#1A1D23"/>
<path d="M189.262 94.6156C189.262 94.5488 189.342 94.5087 189.375 94.5755C190.022 95.7672 190.575 97.0071 191.031 98.284C190.911 97.676 190.771 97.0679 190.657 96.4531C190.277 94.4886 189.929 92.5107 189.542 90.5462C189.546 90.5344 189.554 90.5242 189.564 90.517C189.574 90.5098 189.586 90.5059 189.599 90.5059C189.611 90.5059 189.624 90.5098 189.634 90.517C189.644 90.5242 189.652 90.5344 189.656 90.5462C190.557 93.9273 191.605 97.275 192.406 100.683C193.208 104.091 194.015 107.499 194.763 110.92C195.17 112.811 195.538 115.169 195.952 117.054C196.96 117.174 198.255 117.054 199.343 117.194C199.437 117.194 199.41 117.361 199.343 117.361C198.195 117.395 196.826 117.655 195.618 117.582C195.464 117.582 192.54 105.427 191.325 99.607C190.577 97.9499 189.883 96.2928 189.262 94.6156Z" fill="#1A1D23"/>
<path d="M164.47 75.7218C164.957 77.3188 165.511 78.8958 166.146 80.4393C166.675 81.8299 167.325 83.1714 168.088 84.4485C169.53 86.7271 171.747 88.6114 174.558 88.6047C177.228 88.6047 179.672 87.0545 181.381 85.0766C183.251 82.9183 184.492 80.2121 185.607 77.6061C186.275 75.9958 186.943 74.352 187.477 72.6882C187.751 71.8462 188.038 71.0043 188.278 70.149C188.518 69.2937 188.725 68.4317 189.019 67.5965C189.019 67.5297 189.166 67.5363 189.146 67.5965C188.652 69.5209 187.216 75.6149 186.642 77.1651C185.587 80.005 184.399 82.9384 182.496 85.3305C180.694 87.5891 178.243 89.2997 175.312 89.5803C172.381 89.861 169.871 88.3174 168.255 85.9921C167.305 84.5273 166.564 82.9373 166.052 81.2679C165.431 79.437 164.91 77.5594 164.436 75.6817C164.41 75.7084 164.47 75.7017 164.47 75.7218Z" fill="#1A1D23"/>
<path d="M55.0642 205.42H102.941L105.078 163.297H55.0642V205.42Z" fill="#A5AFC1"/>
<path d="M55.0649 163.298L37.8663 141.748L24.1796 163.298L26.316 205.421H55.0649V163.298Z" fill="#B7BFCE"/>
<path d="M88.3647 134.906H37.2563L18.8226 165.002H24.7579L37.2563 144.168L51.6708 167.488H109.295L88.3647 134.906Z" fill="#8994A9"/>
<path d="M82.4472 144.426H93.4366L99.2986 151.455H86.6133L82.4472 144.426Z" fill="#B7BFCE"/>
<path d="M90.77 150.255V158.814H96.8856V150.255L93.8278 146.426L90.77 150.255Z" fill="#B7BFCE"/>
<path d="M90.7693 150.246H85.9622L90.7693 158.812V150.246Z" fill="#B7BFCE"/>
<path d="M92.2462 150.389H95.7246V156.262H92.2462V150.389Z" fill="white"/>
<path d="M94.1738 150.797H95.2954V152.688H94.1738V150.797Z" fill="#F5F6F7"/>
<path d="M92.6794 150.797H93.801V152.688H92.6794V150.797Z" fill="#F5F6F7"/>
<path d="M94.1738 153.027H95.2954V155.827H94.1738V153.027Z" fill="#F5F6F7"/>
<path d="M92.6794 153.027H93.801V155.827H92.6794V153.027Z" fill="#F5F6F7"/>
<path d="M55.5388 144.426H66.5283L72.0297 151.455H59.7316L55.5388 144.426Z" fill="#B7BFCE"/>
<path d="M63.8632 150.255V158.814H69.9789V150.255L66.921 146.426L63.8632 150.255Z" fill="#B7BFCE"/>
<path d="M63.8625 150.246H59.0488L63.8625 158.812V150.246Z" fill="#B7BFCE"/>
<path d="M65.3394 150.389H68.8179V156.262H65.3394V150.389Z" fill="white"/>
<path d="M67.2698 150.797H68.3915V152.688H67.2698V150.797Z" fill="#F5F6F7"/>
<path d="M65.7689 150.797H66.8905V152.688H65.7689V150.797Z" fill="#F5F6F7"/>
<path d="M67.2698 153.027H68.3915V155.827H67.2698V153.027Z" fill="#F5F6F7"/>
<path d="M65.7689 153.027H66.8905V155.827H65.7689V153.027Z" fill="#F5F6F7"/>
<path d="M46.4258 133.688H52.5414V141.746H46.4258V133.688Z" fill="#CFD4DD"/>
<path d="M46.425 133.688H41.618V134.984L46.425 141.746V133.688Z" fill="#CFD4DD"/>
<path d="M46.4263 130.949H53.2296V133.689H46.4263V130.949Z" fill="#CFD4DD"/>
<path d="M41.0905 130.949H46.425V133.689H41.0905V130.949Z" fill="#8994A9"/>
<path d="M90.3129 170.934H97.884V183.73H90.3129V170.934Z" fill="white"/>
<path d="M94.51 171.822H96.9469V175.945H94.51V171.822Z" fill="#F5F6F7"/>
<path d="M91.2434 171.822H93.6803V175.945H91.2434V171.822Z" fill="#F5F6F7"/>
<path d="M94.51 176.689H96.9469V182.797H94.51V176.689Z" fill="#F5F6F7"/>
<path d="M91.2434 176.689H93.6803V182.797H91.2434V176.689Z" fill="#F5F6F7"/>
<path d="M62.1876 170.934H69.7587V183.73H62.1876V170.934Z" fill="white"/>
<path d="M66.3883 171.822H68.8252V175.945H66.3883V171.822Z" fill="#F5F6F7"/>
<path d="M63.1255 171.822H65.5624V175.945H63.1255V171.822Z" fill="#F5F6F7"/>
<path d="M66.3883 176.689H68.8252V182.797H66.3883V176.689Z" fill="#F5F6F7"/>
<path d="M63.1255 176.689H65.5624V182.797H63.1255V176.689Z" fill="#F5F6F7"/>
<path d="M90.3129 188.715H97.884V201.511H90.3129V188.715Z" fill="white"/>
<path d="M94.51 189.604H96.9469V193.726H94.51V189.604Z" fill="#F5F6F7"/>
<path d="M91.2434 189.604H93.6803V193.726H91.2434V189.604Z" fill="#F5F6F7"/>
<path d="M94.51 194.471H96.9469V200.578H94.51V194.471Z" fill="#F5F6F7"/>
<path d="M91.2434 194.471H93.6803V200.578H91.2434V194.471Z" fill="#F5F6F7"/>
<path d="M62.1876 188.715H69.7587V201.511H62.1876V188.715Z" fill="white"/>
<path d="M66.3883 189.604H68.8252V193.726H66.3883V189.604Z" fill="#F5F6F7"/>
<path d="M63.1255 189.604H65.5624V193.726H63.1255V189.604Z" fill="#F5F6F7"/>
<path d="M66.3883 194.471H68.8252V200.578H66.3883V194.471Z" fill="#F5F6F7"/>
<path d="M63.1255 194.471H65.5624V200.578H63.1255V194.471Z" fill="#F5F6F7"/>
<path d="M76.2897 170.934H83.8608V183.73H76.2897V170.934Z" fill="white"/>
<path d="M80.4914 171.822H82.9283V175.945H80.4914V171.822Z" fill="#F5F6F7"/>
<path d="M77.2174 171.822H79.6543V175.945H77.2174V171.822Z" fill="#F5F6F7"/>
<path d="M80.4914 176.689H82.9283V182.797H80.4914V176.689Z" fill="#F5F6F7"/>
<path d="M77.2174 176.689H79.6543V182.797H77.2174V176.689Z" fill="#F5F6F7"/>
<path d="M76.2897 188.803H83.8608V201.599H76.2897V188.803Z" fill="white"/>
<path d="M80.4914 189.686H82.9283V193.808H80.4914V189.686Z" fill="#F5F6F7"/>
<path d="M77.2174 189.686H79.6543V193.808H77.2174V189.686Z" fill="#F5F6F7"/>
<path d="M80.4914 194.555H82.9283V200.662H80.4914V194.555Z" fill="#F5F6F7"/>
<path d="M77.2174 194.555H79.6543V200.662H77.2174V194.555Z" fill="#F5F6F7"/>
<path d="M41.4592 183.736H33.8881V170.94H41.4592V183.736Z" fill="white"/>
<path d="M34.8209 171.822H37.2578V175.945H34.8209V171.822Z" fill="#F5F6F7"/>
<path d="M38.093 171.822H40.5299V175.945H38.093V171.822Z" fill="#F5F6F7"/>
<path d="M34.8209 176.689H37.2578V182.797H34.8209V176.689Z" fill="#F5F6F7"/>
<path d="M38.093 176.689H40.5299V182.797H38.093V176.689Z" fill="#F5F6F7"/>
<path d="M41.4592 163.951H33.8881V153.12H41.4592V163.951Z" fill="white"/>
<path d="M34.8209 154.002H37.2578V158.125H34.8209V154.002Z" fill="#F5F6F7"/>
<path d="M38.093 154.002H40.5299V158.125H38.093V154.002Z" fill="#F5F6F7"/>
<path d="M34.8209 158.912H37.2578V163.035H34.8209V158.912Z" fill="#F5F6F7"/>
<path d="M38.093 158.912H40.5299V163.035H38.093V158.912Z" fill="#F5F6F7"/>
<path d="M42.5387 205.5L33.3586 205.543L33.2801 188.858L42.4601 188.815L42.5387 205.5Z" fill="white"/>
<path d="M38.8686 189.972L38.8804 192.471L36.9042 192.48L36.8924 189.981L38.8686 189.972Z" fill="#F5F6F7"/>
<path d="M41.4488 189.952L41.4606 192.451L39.4843 192.46L39.4726 189.961L41.4488 189.952Z" fill="#F5F6F7"/>
<path d="M40.0141 201.543L35.8413 201.562L35.8385 200.961L40.0112 200.941L40.0141 201.543Z" fill="#F5F6F7"/>
<path d="M37.6311 188.694V191.193H35.6549V188.694H37.6311Z" fill="#F5F6F7"/>
<path d="M38.8751 193.124L38.8868 195.623L36.9106 195.632L36.8989 193.133L38.8751 193.124Z" fill="#F5F6F7"/>
<path d="M41.4758 193.106L41.4875 195.605L39.5113 195.615L39.4996 193.116L41.4758 193.106Z" fill="#F5F6F7"/>
<path d="M36.2856 193.136L36.2974 195.635L34.3212 195.644L34.3094 193.145L36.2856 193.136Z" fill="#F5F6F7"/>
<path d="M38.8881 196.284L38.8999 198.783L36.9237 198.793L36.9119 196.293L38.8881 196.284Z" fill="#F5F6F7"/>
<path d="M41.4851 196.276L41.4968 198.775L39.5206 198.785L39.5089 196.286L41.4851 196.276Z" fill="#F5F6F7"/>
<path d="M36.2985 196.296L36.3103 198.795L34.3341 198.804L34.3223 196.305L36.2985 196.296Z" fill="#F5F6F7"/>
<path d="M186.831 205.536H229.36L231.263 184.908H186.831V205.536Z" fill="#B9C1CF"/>
<path d="M186.847 184.878L171.571 165.74L159.406 184.878L161.309 205.505H186.847V184.878Z" fill="#CFD4DD"/>
<path d="M216.669 159.688H170.474L153.362 188.627H158.029L171.102 166.844L183.66 188.627H234.842L216.669 159.688Z" fill="#7E889C"/>
<path d="M218.039 192.562H224.769V202.185H218.039V192.562Z" fill="white"/>
<path d="M221.774 193.352H223.938V197.013H221.774V193.352Z" fill="#CFD4DD"/>
<path d="M218.873 193.352H221.036V197.013H218.873V193.352Z" fill="#CFD4DD"/>
<path d="M221.774 197.713H223.938V201.375H221.774V197.713Z" fill="#CFD4DD"/>
<path d="M218.873 197.713H221.036V201.375H218.873V197.713Z" fill="#CFD4DD"/>
<path d="M193.321 192.562H200.051V202.185H193.321V192.562Z" fill="white"/>
<path d="M197.058 193.352H199.221V197.013H197.058V193.352Z" fill="#CFD4DD"/>
<path d="M194.156 193.352H196.319V197.013H194.156V193.352Z" fill="#CFD4DD"/>
<path d="M197.058 197.713H199.221V201.375H197.058V197.713Z" fill="#CFD4DD"/>
<path d="M194.156 197.713H196.319V201.375H194.156V197.713Z" fill="#CFD4DD"/>
<path d="M205.639 192.049H213.057V205.533H205.639V192.049Z" fill="white"/>
<path d="M208.549 192.979H210.145V194.996H208.549V192.979Z" fill="#CFD4DD"/>
<path d="M206.454 192.979H208.049V194.996H206.454V192.979Z" fill="#CFD4DD"/>
<path d="M207.664 201.836H211.036V202.324H207.664V201.836Z" fill="#CFD4DD"/>
<path d="M210.646 192.979H212.242V194.996H210.646V192.979Z" fill="#CFD4DD"/>
<path d="M208.549 195.529H210.145V197.547H208.549V195.529Z" fill="#CFD4DD"/>
<path d="M206.454 195.529H208.049V197.547H206.454V195.529Z" fill="#CFD4DD"/>
<path d="M210.646 195.529H212.242V197.547H210.646V195.529Z" fill="#CFD4DD"/>
<path d="M208.549 198.084H210.145V200.102H208.549V198.084Z" fill="#CFD4DD"/>
<path d="M206.454 198.084H208.049V200.102H206.454V198.084Z" fill="#CFD4DD"/>
<path d="M210.646 198.084H212.242V200.102H210.646V198.084Z" fill="#CFD4DD"/>
<path d="M206.896 158.535H212.33V165.692H206.896V158.535Z" fill="#CFD4DD"/>
<path d="M206.894 158.535H202.621V159.684L206.894 165.692V158.535Z" fill="#CFD4DD"/>
<path d="M206.897 156.096H212.939V158.528H206.897V156.096Z" fill="#CFD4DD"/>
<path d="M202.154 156.096H206.894V158.528H202.154V156.096Z" fill="#8994A9"/>
<path d="M170.018 205.538H156.225L154.909 191.312H170.018V205.538Z" fill="#CFD4DD"/>
<path d="M170.02 191.315L176.837 188.234L176.683 205.541H170.02V191.315Z" fill="#CFD4DD"/>
<path d="M159.456 195H165.258V205.538H159.456V195Z" fill="white"/>
<path d="M161.736 195.719H162.984V197.296H161.736V195.719Z" fill="#CFD4DD"/>
<path d="M160.1 195.719H161.349V197.296H160.1V195.719Z" fill="#CFD4DD"/>
<path d="M161.041 201.934H163.678V202.313H161.041V201.934Z" fill="#CFD4DD"/>
<path d="M163.372 195.719H164.62V197.296H163.372V195.719Z" fill="#CFD4DD"/>
<path d="M177.877 187.527H157.834L151.358 192.459H170.6L177.877 187.527Z" fill="#8994A9"/>
<path d="M170.6 192.459H177.877V187.527L170.6 192.459Z" fill="#CFD4DD"/>
<path d="M174.909 180.316C174.909 180.997 174.708 181.663 174.329 182.229C173.951 182.795 173.414 183.236 172.785 183.496C172.157 183.756 171.465 183.824 170.798 183.691C170.131 183.558 169.518 183.229 169.037 182.747C168.557 182.265 168.23 181.651 168.098 180.983C167.966 180.316 168.035 179.623 168.296 178.995C168.558 178.366 168.999 177.829 169.566 177.452C170.132 177.074 170.797 176.874 171.478 176.875C172.388 176.877 173.261 177.24 173.905 177.885C174.548 178.53 174.909 179.405 174.909 180.316Z" fill="white"/>
<path d="M174.139 180.318C174.139 181.027 173.857 181.707 173.356 182.208C172.856 182.71 172.176 182.991 171.468 182.991C171.242 182.993 171.018 182.964 170.8 182.904C170.178 182.735 169.639 182.347 169.28 181.811C168.922 181.275 168.769 180.627 168.851 179.988C168.932 179.348 169.242 178.759 169.723 178.33C170.204 177.901 170.824 177.66 171.468 177.652C171.693 177.651 171.918 177.681 172.136 177.739C172.446 177.815 172.739 177.951 172.997 178.14C173.348 178.385 173.634 178.711 173.833 179.09C174.032 179.469 174.136 179.89 174.139 180.318Z" fill="#CFD4DD"/>
<path d="M171.842 183.455H171.101V177.121H171.842V183.455Z" fill="white"/>
<path d="M168.305 180.66V179.918H174.634V180.66H168.305Z" fill="white"/>
<path d="M150.364 205.537H171.855L173.324 189.627H150.364V205.537Z" fill="#CFD4DD"/>
<path opacity="0.2" d="M150.364 205.537H171.855L173.324 189.627H150.364V205.537Z" fill="#2B374F"/>
<path d="M150.367 189.631L138.583 174.863L129.202 189.631L130.664 205.54H150.367V189.631Z" fill="#CFD4DD"/>
<path d="M148.943 191.575H178.105L160.366 169.25H138.461L125.295 191.575H128.64L138.461 176.279L148.943 191.575Z" fill="#CFD4DD"/>
<path opacity="0.4" d="M148.943 191.575H178.105L160.366 169.25H138.461L125.295 191.575H128.64L138.461 176.279L148.943 191.575Z" fill="#8994A9"/>
<path d="M119.512 149.506H125.588V157.511H119.512V149.506Z" fill="#CFD4DD"/>
<path opacity="0.2" d="M119.512 149.506H125.588V157.511H119.512V149.506Z" fill="#1A1D23"/>
<path d="M114.733 149.506H119.513V157.511H114.733V149.506Z" fill="#CFD4DD"/>
<path d="M119.516 146.777H126.272V149.497H119.516V146.777Z" fill="#CFD4DD"/>
<path opacity="0.5" d="M119.516 146.777H126.272V149.497H119.516V146.777Z" fill="#3C4453"/>
<path d="M114.212 146.777H119.513V149.497H114.212V146.777Z" fill="#CFD4DD"/>
<path opacity="0.4" d="M114.212 146.777H119.513V149.497H114.212V146.777Z" fill="#1A1D23"/>
<path d="M98.1638 205.522H145.734L147.863 182.449H98.1638V205.522Z" fill="#CFD4DD"/>
<path opacity="0.2" d="M98.1638 205.522H145.734L147.863 182.449H98.1638V205.522Z" fill="#1B3056"/>
<path d="M98.1627 182.449L81.0776 161.033L67.471 182.449L69.6008 205.522H98.1627V182.449Z" fill="#B7BFCE"/>
<path d="M81.2833 162.386L67.236 184.13H62.3288L80.8627 154.234H131.464L157.101 186.609H95.2972L81.2833 162.386Z" fill="#CFD4DD"/>
<path opacity="0.5" d="M81.2833 162.386L67.236 184.13H62.3288L80.8627 154.234H131.464L157.101 186.609H95.2972L81.2833 162.386Z" fill="#5E6A82"/>
<path d="M85.5189 185.689H77.9945V174.925H85.5189V185.689Z" fill="white"/>
<path d="M78.9212 175.797H81.3447V179.893H78.9212V175.797Z" fill="#CFD4DD"/>
<path d="M82.1664 175.797H84.59V179.893H82.1664V175.797Z" fill="#CFD4DD"/>
<path d="M78.9212 180.68H81.3447V184.776H78.9212V180.68Z" fill="#CFD4DD"/>
<path d="M82.1664 180.68H84.59V184.776H82.1664V180.68Z" fill="#CFD4DD"/>
<path d="M133.072 191.006H140.596V201.771H133.072V191.006Z" fill="white"/>
<path d="M137.246 191.891H139.669V195.987H137.246V191.891Z" fill="#CFD4DD"/>
<path d="M133.993 191.891H136.417V195.987H133.993V191.891Z" fill="#CFD4DD"/>
<path d="M137.246 196.768H139.669V200.864H137.246V196.768Z" fill="#CFD4DD"/>
<path d="M133.993 196.768H136.417V200.864H133.993V196.768Z" fill="#CFD4DD"/>
<path d="M119.244 191.006H126.768V201.771H119.244V191.006Z" fill="white"/>
<path d="M123.425 191.891H125.849V195.987H123.425V191.891Z" fill="#CFD4DD"/>
<path d="M120.174 191.891H122.598V195.987H120.174V191.891Z" fill="#CFD4DD"/>
<path d="M123.425 196.768H125.849V200.864H123.425V196.768Z" fill="#CFD4DD"/>
<path d="M120.174 196.768H122.598V200.864H120.174V196.768Z" fill="#CFD4DD"/>
<path d="M105.428 191.006H112.952V201.771H105.428V191.006Z" fill="white"/>
<path d="M109.598 191.891H112.021V195.987H109.598V191.891Z" fill="#CFD4DD"/>
<path d="M106.355 191.891H108.779V195.987H106.355V191.891Z" fill="#CFD4DD"/>
<path d="M109.598 196.768H112.021V200.864H109.598V196.768Z" fill="#CFD4DD"/>
<path d="M106.355 196.768H108.779V200.864H106.355V196.768Z" fill="#CFD4DD"/>
<path d="M85.9042 205.514H77.6053V190.432H85.9042V205.514Z" fill="white"/>
<path d="M80.8567 191.475H82.646V193.733H80.8567V191.475Z" fill="#CFD4DD"/>
<path d="M83.2009 191.475H84.9902V193.733H83.2009V191.475Z" fill="#CFD4DD"/>
<path d="M83.6373 201.928H79.8651V201.38H83.6373V201.928Z" fill="#CFD4DD"/>
<path d="M78.5179 191.475H80.3073V193.733H78.5179V191.475Z" fill="#CFD4DD"/>
<path d="M80.8567 194.332H82.646V196.591H80.8567V194.332Z" fill="#CFD4DD"/>
<path d="M83.2009 194.332H84.9902V196.591H83.2009V194.332Z" fill="#CFD4DD"/>
<path d="M78.5179 194.332H80.3073V196.591H78.5179V194.332Z" fill="#CFD4DD"/>
<path d="M80.8567 197.18H82.646V199.438H80.8567V197.18Z" fill="#CFD4DD"/>
<path d="M83.2009 197.18H84.9902V199.438H83.2009V197.18Z" fill="#CFD4DD"/>
<path d="M78.5179 197.18H80.3073V199.438H78.5179V197.18Z" fill="#CFD4DD"/>
<path d="M111.875 161.984H122.798L128.413 169H116.048L111.875 161.984Z" fill="#CFD4DD"/>
<path opacity="0.4" d="M111.875 161.984H122.798L128.413 169H116.048L111.875 161.984Z" fill="#3C4453"/>
<path d="M120.149 167.775V176.281H126.231V167.775L123.187 163.973L120.149 167.775Z" fill="#CFD4DD"/>
<path opacity="0.2" d="M120.149 167.775V176.281H126.231V167.775L123.187 163.973L120.149 167.775Z" fill="#1A1D23"/>
<path d="M120.147 167.773H115.366L120.147 176.28V167.773Z" fill="#CFD4DD"/>
<path d="M121.621 167.908H125.073V173.742H121.621V167.908Z" fill="white"/>
<path d="M123.532 168.311H124.647V170.188H123.532V168.311Z" fill="#CFD4DD"/>
<path d="M122.044 168.311H123.159V170.188H122.044V168.311Z" fill="#CFD4DD"/>
<path d="M123.532 170.533H124.647V173.32H123.532V170.533Z" fill="#CFD4DD"/>
<path d="M122.044 170.533H123.159V173.32H122.044V170.533Z" fill="#CFD4DD"/>
</svg>
